<svg width="6" height="10" viewBox="0 0 6 10" fill="none" xmlns="http://www.w3.org/2000/svg">
<path d="M0.982517 1.03246C0.912989 1.10184 0.857828 1.18426 0.820192 1.27499C0.782556 1.36572 0.763184 1.46298 0.763184 1.56121C0.763184 1.65943 0.782556 1.75669 0.820192 1.84742C0.857828 1.93815 0.912989 2.02057 0.982517 2.08996L3.89252 4.99996L0.982517 7.90996C0.842284 8.05019 0.763501 8.24039 0.763501 8.4387C0.763501 8.63702 0.842284 8.82722 0.982517 8.96746C1.12275 9.10769 1.31295 9.18647 1.51127 9.18647C1.70959 9.18647 1.89978 9.10769 2.04002 8.96746L5.48252 5.52496C5.55204 5.45557 5.6072 5.37315 5.64484 5.28242C5.68248 5.19169 5.70185 5.09443 5.70185 4.99621C5.70185 4.89798 5.68248 4.80072 5.64484 4.70999C5.6072 4.61926 5.55204 4.53684 5.48252 4.46746L2.04002 1.02496C1.75502 0.739955 1.27502 0.739956 0.982517 1.03246Z" fill="black"/>
</svg>
