<svg width="6" height="10" viewBox="0 0 6 10" fill="none" xmlns="http://www.w3.org/2000/svg">
<path d="M5.01748 1.03246C5.08701 1.10184 5.14217 1.18426 5.17981 1.27499C5.21744 1.36572 5.23682 1.46298 5.23682 1.56121C5.23682 1.65943 5.21744 1.75669 5.17981 1.84742C5.14217 1.93815 5.08701 2.02057 5.01748 2.08996L2.10748 4.99996L5.01748 7.90996C5.15772 8.05019 5.2365 8.24038 5.2365 8.4387C5.2365 8.63702 5.15772 8.82722 5.01748 8.96746C4.87725 9.10769 4.68705 9.18647 4.48873 9.18647C4.29041 9.18647 4.10022 9.10769 3.95998 8.96746L0.517484 5.52496C0.447956 5.45557 0.392795 5.37315 0.355159 5.28242C0.317523 5.19169 0.298151 5.09443 0.298151 4.99621C0.298151 4.89798 0.317523 4.80072 0.355159 4.70999C0.392795 4.61926 0.447956 4.53684 0.517484 4.46746L3.95998 1.02496C4.24498 0.739955 4.72498 0.739956 5.01748 1.03246Z" fill="black"/>
</svg>
