<svg width="89" height="99" viewBox="0 0 89 99" fill="none" xmlns="http://www.w3.org/2000/svg">
<path fill-rule="evenodd" clip-rule="evenodd" d="M47.25 62.1751V51.8764L88.4446 28.8148L88.5 29.3034V39.0824L47.25 62.1751ZM47.25 72.0428V98.8106L88.4446 75.749L88.5 76.2376V49.4698L88.4446 48.9812L47.25 72.0428ZM88.5 18.9157L47.25 42.0083V32.3548L88.5 9.26221V18.9157Z" fill="#C8E0EA"/>
<mask id="path-2-inside-1_131_64" fill="white">
<path fill-rule="evenodd" clip-rule="evenodd" d="M47.25 26.7333V18.839L80.25 0.364868V8.67536L80.2056 8.28404L47.25 26.7333Z"/>
</mask>
<path d="M47.25 18.839L46.8592 18.1409L46.45 18.37V18.839H47.25ZM47.25 26.7333H46.45V28.098L47.6408 27.4314L47.25 26.7333ZM80.25 0.364868H81.05V-0.999818L79.8592 -0.33319L80.25 0.364868ZM80.25 8.67536L79.4551 8.76547L81.05 8.67536H80.25ZM80.2056 8.28404L81.0005 8.19393L80.865 6.9981L79.8148 7.58598L80.2056 8.28404ZM46.45 18.839V26.7333H48.05V18.839H46.45ZM79.8592 -0.33319L46.8592 18.1409L47.6408 19.537L80.6408 1.06293L79.8592 -0.33319ZM81.05 8.67536V0.364868H79.45V8.67536H81.05ZM79.4107 8.37416L79.4551 8.76547L81.0449 8.58525L81.0005 8.19393L79.4107 8.37416ZM47.6408 27.4314L80.5964 8.9821L79.8148 7.58598L46.8592 26.0352L47.6408 27.4314Z" fill="#C8E0EA" mask="url(#path-2-inside-1_131_64)"/>
<path fill-rule="evenodd" clip-rule="evenodd" d="M41.75 26.5576V18.6635L8.75 0.189453V8.4997L8.79436 8.10839L41.75 26.5576Z" fill="#C8E0EA"/>
<path fill-rule="evenodd" clip-rule="evenodd" d="M37.1666 51.7006V43.8062L4.16663 25.3322V33.6418L4.2109 33.2513L37.1666 51.7006Z" fill="#C8E0EA"/>
<mask id="path-6-inside-2_131_64" fill="white">
<path fill-rule="evenodd" clip-rule="evenodd" d="M41.75 98.3806V31.9248L0.5 8.83215V75.8076L0.555389 75.319L41.75 98.3806Z"/>
</mask>
<path d="M41.75 31.9248L42.1408 31.2267L42.55 31.4558V31.9248H41.75ZM41.75 98.3806H42.55V99.7453L41.3592 99.0786L41.75 98.3806ZM0.5 8.83215H-0.299999V7.46747L0.890789 8.1341L0.5 8.83215ZM0.5 75.8076L1.29491 75.8977L-0.299999 75.8076H0.5ZM0.555389 75.319L-0.239521 75.2289L-0.103954 74.033L0.946178 74.6209L0.555389 75.319ZM42.55 31.9248V98.3806H40.95V31.9248H42.55ZM0.890789 8.1341L42.1408 31.2267L41.3592 32.6228L0.109211 9.53021L0.890789 8.1341ZM-0.299999 75.8076V8.83215H1.3V75.8076H-0.299999ZM1.3503 75.4091L1.29491 75.8977L-0.29491 75.7175L-0.239521 75.2289L1.3503 75.4091ZM41.3592 99.0786L0.1646 76.017L0.946178 74.6209L42.1408 97.6825L41.3592 99.0786Z" fill="#C8E0EA" mask="url(#path-6-inside-2_131_64)"/>
</svg>
